<svg width="32" height="32" viewBox="0 0 32 32" fill="none" xmlns="http://www.w3.org/2000/svg">
<path d="M0 16C0 7.16344 7.16344 0 16 0V0C24.8366 0 32 7.16344 32 16V16C32 24.8366 24.8366 32 16 32V32C7.16344 32 0 24.8366 0 16V16Z" fill="white"/>
<path d="M14.3333 8.08333C17.7851 8.08333 20.5833 10.8816 20.5833 14.3333C20.5833 15.7585 20.1064 17.0722 19.3033 18.1236L23.2559 22.0774C23.5814 22.4028 23.5814 22.9305 23.2559 23.2559C22.9555 23.5563 22.4828 23.5794 22.1559 23.3252L22.0774 23.2559L18.1236 19.3033C17.0722 20.1064 15.7585 20.5833 14.3333 20.5833C10.8816 20.5833 8.08333 17.7851 8.08333 14.3333C8.08333 10.8816 10.8816 8.08333 14.3333 8.08333ZM14.3333 9.75C11.802 9.75 9.75 11.802 9.75 14.3333C9.75 16.8646 11.802 18.9167 14.3333 18.9167C16.8646 18.9167 18.9167 16.8646 18.9167 14.3333C18.9167 11.802 16.8646 9.75 14.3333 9.75Z" fill="url(#paint0_linear_1935_18560)"/>
<defs>
<linearGradient id="paint0_linear_1935_18560" x1="8.08265" y1="15.7911" x2="23.4999" y2="15.7911" gradientUnits="userSpaceOnUse">
<stop stop-color="#39D2FF"/>
<stop offset="0.1501" stop-color="#38CEFE"/>
<stop offset="0.2931" stop-color="#35C3FA"/>
<stop offset="0.4327" stop-color="#2FB0F3"/>
<stop offset="0.5468" stop-color="#299AEB"/>
<stop offset="0.5827" stop-color="#2692EC"/>
<stop offset="0.7635" stop-color="#1A6CF1"/>
<stop offset="0.909" stop-color="#1355F4"/>
<stop offset="1" stop-color="#104CF5"/>
</linearGradient>
</defs>
</svg>
